<?xml version="1.0" standalone="no"?><!DOCTYPE svg PUBLIC "-//W3C//DTD SVG 1.1//EN" "http://www.w3.org/Graphics/SVG/1.1/DTD/svg11.dtd"><svg t="1561218241526" class="icon" viewBox="0 0 1024 1024" version="1.1" xmlns="http://www.w3.org/2000/svg" p-id="5831" xmlns:xlink="http://www.w3.org/1999/xlink" width="128" height="128"><defs><style type="text/css"></style></defs><path d="M172.8 883.2h-0.064a31.936 31.936 0 0 1-22.592-9.344A510.08 510.08 0 0 1 8.032 519.84c0-282.784 229.216-512 512-512 137.44 0 262.24 54.144 354.208 142.304l-0.192-0.16A32 32 0 0 1 828.8 195.232 446.624 446.624 0 0 0 512 64C264.576 64 63.968 264.576 63.968 512.032c0 123.712 50.144 235.712 131.232 316.8a32 32 0 0 1-22.368 54.4H172.8z"></path></svg>